# xmcd
#
# Track frame offsets:
#	150
#	22798
#	40901
#	61681
#	70675
#	92099
#	111784
#	131718
#	148020
#	166739
#	185344
#	204445
#	207107
#	224819
#	242370
#	261174
#	281796
#	303246
#	310583
#
# Disc length: 4430 seconds
#
# Revision: 0
# Processed by: cddbd v1.4PL0 Copyright (c) Steve Scherf et al.
# Submitted via: audiograbber 1.81.03
#
DISCID=0a114c13
DTITLE=Texas - Southside
DYEAR=1989
DGENRE=Pop
TTITLE0=I Don't Want A Lover
TTITLE1=Tell Me Why
TTITLE2=Everyday Now
TTITLE3=Southside
TTITLE4=Prayer For You
TTITLE5=Faith
TTITLE6=Thrill Has Gone
TTITLE7=Fight The Feeling
TTITLE8=Fool For Love
TTITLE9=One Choice
TTITLE10=Future Is Promises
TTITLE11=1
TTITLE12=1
TTITLE13=1
TTITLE14=1
TTITLE15=1
TTITLE16=1
TTITLE17=1
TTITLE18=1
EXTD=
EXTT0=
EXTT1=
EXTT2=
EXTT3=
EXTT4=
EXTT5=
EXTT6=
EXTT7=
EXTT8=
EXTT9=
EXTT10=
EXTT11=
EXTT12=
EXTT13=
EXTT14=
EXTT15=
EXTT16=
EXTT17=
EXTT18=
PLAYORDER=
